<?xml version="1.0" encoding="UTF-8" standalone="no"?>
<!-- Created with Inkscape (http://www.inkscape.org/) -->

<svg
   width="256"
   height="256"
   viewBox="0 0 67.733332 67.733333"
   version="1.1"
   id="svg1"
   xml:space="preserve"
   inkscape:version="1.3.1 (91b66b0, 2023-11-16)"
   sodipodi:docname="eye_open.svg"
   inkscape:export-filename="eye_open.png"
   inkscape:export-xdpi="96"
   inkscape:export-ydpi="96"
   xmlns:inkscape="http://www.inkscape.org/namespaces/inkscape"
   xmlns:sodipodi="http://sodipodi.sourceforge.net/DTD/sodipodi-0.dtd"
   xmlns="http://www.w3.org/2000/svg"
   xmlns:svg="http://www.w3.org/2000/svg"><sodipodi:namedview
     id="namedview1"
     pagecolor="#ffffff"
     bordercolor="#000000"
     borderopacity="0.25"
     inkscape:showpageshadow="2"
     inkscape:pageopacity="0.0"
     inkscape:pagecheckerboard="0"
     inkscape:deskcolor="#d1d1d1"
     inkscape:document-units="mm"
     inkscape:zoom="0.43639666"
     inkscape:cx="-4.5829865"
     inkscape:cy="87.076744"
     inkscape:window-width="1512"
     inkscape:window-height="805"
     inkscape:window-x="0"
     inkscape:window-y="38"
     inkscape:window-maximized="0"
     inkscape:current-layer="layer1"
     showguides="true" /><defs
     id="defs1"><inkscape:path-effect
       effect="skeletal"
       id="path-effect3"
       is_visible="true"
       lpeversion="1"
       pattern="m -28.282146,95.580032 a 32.882259,32.882259 0 0 1 -32.88226,32.882258 32.882259,32.882259 0 0 1 -32.882259,-32.882258 32.882259,32.882259 0 0 1 32.882259,-32.882259 32.882259,32.882259 0 0 1 32.88226,32.882259 z"
       copytype="single_stretched"
       prop_scale="1"
       scale_y_rel="false"
       spacing="0"
       normal_offset="0"
       tang_offset="0"
       prop_units="false"
       vertical_pattern="false"
       hide_knot="false"
       fuse_tolerance="0" /><inkscape:path-effect
       effect="skeletal"
       id="path-effect4"
       is_visible="true"
       lpeversion="1"
       pattern="m 724.29845,335.54584 a 72.987419,24.732378 0 0 1 -72.98741,24.73238 72.987419,24.732378 0 0 1 -72.98742,-24.73238 72.987419,24.732378 0 0 1 72.98742,-24.73238 72.987419,24.732378 0 0 1 72.98741,24.73238 z"
       copytype="single_stretched"
       prop_scale="-3.1404241"
       scale_y_rel="false"
       spacing="0"
       normal_offset="0"
       tang_offset="0"
       prop_units="false"
       vertical_pattern="false"
       hide_knot="false"
       fuse_tolerance="0" /><inkscape:path-effect
       effect="skeletal"
       id="path-effect1"
       is_visible="true"
       lpeversion="1"
       pattern="m 724.29845,335.54584 a 72.987419,24.732378 0 0 1 -72.98741,24.73238 72.987419,24.732378 0 0 1 -72.98742,-24.73238 72.987419,24.732378 0 0 1 72.98742,-24.73238 72.987419,24.732378 0 0 1 72.98741,24.73238 z"
       copytype="single_stretched"
       prop_scale="-3.1404241"
       scale_y_rel="false"
       spacing="0"
       normal_offset="0"
       tang_offset="0"
       prop_units="false"
       vertical_pattern="false"
       hide_knot="false"
       fuse_tolerance="0" /></defs><g
     inkscape:label="Layer 1"
     inkscape:groupmode="layer"
     id="layer1"><path
       style="color:#000000;fill:#000000;stroke-linecap:round;stroke-linejoin:round;-inkscape-stroke:none"
       d="M 33.839844,13.652344 C 20.869398,13.685362 8.9879486,20.961173 3.0605469,32.498047 a 2.9967997,2.9967997 0 0 0 0,2.738281 C 8.9879489,46.773201 20.869399,54.04706 33.839844,54.080078 a 2.9967997,2.9967997 0 0 0 0.01563,0 c 13.001514,-0.03211 24.908657,-7.339124 30.822265,-18.917969 a 2.9967997,2.9967997 0 0 0 -0.0078,-2.740234 C 58.71533,20.900918 46.818403,13.655662 33.849609,13.652344 a 2.9967997,2.9967997 0 0 0 -0.0098,0 z m 0.0078,5.992187 h 0.0078 c 10.1984,0.0054 19.520502,5.446439 24.660156,14.16211 C 53.404753,42.57008 44.073128,48.059852 33.847656,48.087891 23.64805,48.05915 14.337999,42.596251 9.21875,33.867187 14.337999,25.138124 23.64805,19.673272 33.847656,19.644531 Z"
       id="path1" /><path
       id="path2"
       style="fill:#000000;fill-opacity:1;stroke-width:1.99636;stroke-linecap:round;stroke-linejoin:round"
       d="m 30.757691,23.413551 c 2.069002,0.877831 3.414143,2.906035 3.41793,5.153555 1.6e-5,3.097504 -2.511011,5.608531 -5.608515,5.608515 -2.24752,-0.0038 -4.275724,-1.348928 -5.153555,-3.417931 -0.300897,1.008939 -0.454138,2.056126 -0.454959,3.108977 6.7e-5,6.024335 4.883739,10.908007 10.908075,10.908075 6.024335,-6.8e-5 10.908007,-4.88374 10.908075,-10.908075 -6.8e-5,-6.024336 -4.88374,-10.908008 -10.908075,-10.908075 -1.052851,8.2e-4 -2.100038,0.154062 -3.108976,0.454959 z"
       sodipodi:nodetypes="ccccccccc" /></g></svg>
