<?xml version="1.0" encoding="UTF-8" standalone="no"?>
<!-- Created with Inkscape (http://www.inkscape.org/) -->

<svg
   width="256"
   height="256"
   viewBox="0 0 67.733332 67.733333"
   version="1.1"
   id="svg1"
   xml:space="preserve"
   inkscape:version="1.3.1 (91b66b0, 2023-11-16)"
   sodipodi:docname="eye_closed.svg"
   inkscape:export-filename="eye_closed.png"
   inkscape:export-xdpi="96"
   inkscape:export-ydpi="96"
   xmlns:inkscape="http://www.inkscape.org/namespaces/inkscape"
   xmlns:sodipodi="http://sodipodi.sourceforge.net/DTD/sodipodi-0.dtd"
   xmlns="http://www.w3.org/2000/svg"
   xmlns:svg="http://www.w3.org/2000/svg"><sodipodi:namedview
     id="namedview1"
     pagecolor="#ffffff"
     bordercolor="#000000"
     borderopacity="0.25"
     inkscape:showpageshadow="2"
     inkscape:pageopacity="0.0"
     inkscape:pagecheckerboard="0"
     inkscape:deskcolor="#d1d1d1"
     inkscape:document-units="mm"
     inkscape:zoom="0.45095136"
     inkscape:cx="31.045477"
     inkscape:cy="-39.915613"
     inkscape:window-width="1512"
     inkscape:window-height="805"
     inkscape:window-x="0"
     inkscape:window-y="38"
     inkscape:window-maximized="0"
     inkscape:current-layer="layer1"
     showguides="true" /><defs
     id="defs1"><inkscape:path-effect
       effect="skeletal"
       id="path-effect3"
       is_visible="true"
       lpeversion="1"
       pattern="m -28.282146,95.580032 a 32.882259,32.882259 0 0 1 -32.88226,32.882258 32.882259,32.882259 0 0 1 -32.882259,-32.882258 32.882259,32.882259 0 0 1 32.882259,-32.882259 32.882259,32.882259 0 0 1 32.88226,32.882259 z"
       copytype="single_stretched"
       prop_scale="1"
       scale_y_rel="false"
       spacing="0"
       normal_offset="0"
       tang_offset="0"
       prop_units="false"
       vertical_pattern="false"
       hide_knot="false"
       fuse_tolerance="0" /><inkscape:path-effect
       effect="skeletal"
       id="path-effect4"
       is_visible="true"
       lpeversion="1"
       pattern="m 724.29845,335.54584 a 72.987419,24.732378 0 0 1 -72.98741,24.73238 72.987419,24.732378 0 0 1 -72.98742,-24.73238 72.987419,24.732378 0 0 1 72.98742,-24.73238 72.987419,24.732378 0 0 1 72.98741,24.73238 z"
       copytype="single_stretched"
       prop_scale="-3.1404241"
       scale_y_rel="false"
       spacing="0"
       normal_offset="0"
       tang_offset="0"
       prop_units="false"
       vertical_pattern="false"
       hide_knot="false"
       fuse_tolerance="0" /><inkscape:path-effect
       effect="skeletal"
       id="path-effect1"
       is_visible="true"
       lpeversion="1"
       pattern="m 724.29845,335.54584 a 72.987419,24.732378 0 0 1 -72.98741,24.73238 72.987419,24.732378 0 0 1 -72.98742,-24.73238 72.987419,24.732378 0 0 1 72.98742,-24.73238 72.987419,24.732378 0 0 1 72.98741,24.73238 z"
       copytype="single_stretched"
       prop_scale="-3.1404241"
       scale_y_rel="false"
       spacing="0"
       normal_offset="0"
       tang_offset="0"
       prop_units="false"
       vertical_pattern="false"
       hide_knot="false"
       fuse_tolerance="0" /></defs><g
     inkscape:label="Layer 1"
     inkscape:groupmode="layer"
     id="layer1"><path
       id="path1"
       style="color:#000000;fill:#000000;stroke-linecap:round;stroke-linejoin:round;-inkscape-stroke:none"
       d="M 33.839795 13.652397 C 30.150333 13.661789 26.54972 14.258838 23.148458 15.371672 L 28.040666 20.263879 C 29.927454 19.865356 31.869797 19.649852 33.847546 19.644279 L 33.855298 19.644279 C 44.053688 19.649679 53.376159 25.09106 58.515808 33.806722 C 56.448506 37.351473 53.682054 40.348281 50.453768 42.676982 L 54.775468 46.998682 C 58.85216 43.900392 62.264391 39.887466 64.677706 35.162195 A 2.9967997 2.9967997 0 0 0 64.669954 32.421794 C 58.715351 20.900848 46.818394 13.655715 33.849613 13.652397 A 2.9967997 2.9967997 0 0 0 33.839795 13.652397 z M 12.942362 20.720182 C 8.8794028 23.804381 5.4759135 27.797578 3.0607951 32.498275 A 2.9967997 2.9967997 0 0 0 3.0607951 35.236092 C 8.9881912 46.772954 20.869363 54.046885 33.839795 54.079903 A 2.9967997 2.9967997 0 0 0 33.855298 54.079903 C 37.554959 54.070766 41.165506 53.470951 44.575057 52.352877 L 39.684399 47.462219 C 37.788322 47.864517 35.835654 48.082569 33.847546 48.088021 C 23.647951 48.05928 14.337803 42.596239 9.2185588 33.867183 C 11.286445 30.341138 14.046655 27.360047 17.264579 25.042399 L 12.942362 20.720182 z " /><path
       id="path2"
       style="fill:#000000;fill-opacity:1;stroke-width:1.99636;stroke-linecap:round;stroke-linejoin:round"
       d="M 33.866667 22.958805 C 32.932349 22.959533 32.004086 23.086694 31.101461 23.324158 L 31.717961 23.940658 C 32.309574 24.342708 32.813967 24.849084 33.208309 25.431006 L 44.417961 36.640658 C 44.650265 35.754773 44.774517 34.825419 44.774528 33.866667 C 44.77446 27.842337 39.890996 22.958872 33.866667 22.958805 z M 23.324158 31.101461 C 23.086694 32.004086 22.959534 32.932349 22.958805 33.866667 C 22.958872 39.890996 27.842337 44.77446 33.866667 44.774528 C 34.825419 44.774517 35.754773 44.650265 36.640658 44.417961 L 25.431006 33.208309 C 24.849084 32.813968 24.342708 32.309573 23.940658 31.717961 L 23.324158 31.101461 z " /><g
       id="path4-7"
       style="fill:#000000"><path
         style="color:#000000;fill:#000000;stroke-linecap:round;stroke-linejoin:round;-inkscape-stroke:none"
         d="M 9.9389424,9.9389448 57.794391,57.794389"
         id="path8" /></g><path
       style="color:#000000;fill:#808080;stroke-linecap:round;stroke-linejoin:round;-inkscape-stroke:none"
       d="M 97.984977,14.250164 145.84043,62.105609"
       id="path5" /><path
       style="color:#000000;fill:#000000;stroke-linecap:round;stroke-linejoin:round;-inkscape-stroke:none"
       d="m 9.9389337,5.5168507 a 4.4219098,4.4219098 0 0 0 -3.126953,1.294922 4.4219098,4.4219098 0 0 0 0,6.2539063 L 54.667453,60.921148 a 4.4219098,4.4219098 0 0 0 6.2539,0 4.4219098,4.4219098 0 0 0 0,-6.253906 L 13.065887,6.8117727 A 4.4219098,4.4219098 0 0 0 9.9389337,5.5168507 Z"
       id="path6-8" /><g
       id="path4"
       transform="translate(-5.2098332e-4,-1.0560898e-4)"
       style="fill:#000000"><path
         style="color:#000000;fill:#000000;stroke-linecap:round;stroke-linejoin:round;-inkscape-stroke:none"
         d="M 9.9389427,9.9389447 57.794391,57.794389"
         id="path7" /></g></g></svg>
